#Comment line ignore any data following # character 
#Hierarchical Translation and Rotation (.htr) file 
[Header]	
#Header keywords are followed by a single value 
FileType HTR		#Single word string
DataType HTRS		#Translation followed by rotation and scale data
FileVersion 1		#integer
NumSegments 84		#integer
NumFrames 2		#integer
DataFrameRate 30		#integer, data frame rate in this file
EulerRotationOrder ZYX
CalibrationUnits mm
RotationUnits Degrees
GlobalAxisofGravity Y
BoneLengthAxis Y
ScaleFactor 1.00
[SegmentNames&Hierarchy]
#CHILD	PARENT
MASTER GLOBAL
root MASTER
chest root
L_mid_tent01 root
R_mid_tent01 root
spine01 root
Bip01_Neck chest
L_humerus chest
R_humerus chest
weapon_bone chest
Bip01_Head Bip01_Neck
eye_left_bone Bip01_Head
eye_right_bone Bip01_Head
L_forearm L_humerus
L_front_hand L_forearm
L_weapon_bone L_forearm
L_front_hand01_01 L_front_hand
L_front_hand02_01 L_front_hand
L_front_hand03_01 L_front_hand
L_front_hand01_02 L_front_hand01_01
L_front_hand02_02 L_front_hand02_01
L_front_hand03_02 L_front_hand03_01
R_forearm R_humerus
R_front_hand R_forearm
R_weapon_bone R_forearm
R_front_hand01_01 R_front_hand
R_front_hand02_01 R_front_hand
R_front_hand03_01 R_front_hand
R_front_hand01_02 R_front_hand01_01
R_front_hand02_02 R_front_hand02_01
R_front_hand03_02 R_front_hand03_01
null_rope01_connect L_mid_tent01
Rope1_Seg01 null_rope01_connect
Rope1_Seg02 Rope1_Seg01
Rope1_Seg03 Rope1_Seg02
Rope1_Seg04 Rope1_Seg03
Rope1_Seg05 Rope1_Seg04
Rope1_Seg06 Rope1_Seg05
Rope1_Seg07 Rope1_Seg06
Rope1_Seg09 Rope1_Seg07
L_mid_hand01 Rope1_Seg09
L_mid_hand02 Rope1_Seg09
L_mid_hand03 Rope1_Seg09
null_rope02_connect R_mid_tent01
Rope2_Seg01 null_rope02_connect
Rope2_Seg02 Rope2_Seg01
Rope2_Seg03 Rope2_Seg02
Rope2_Seg04 Rope2_Seg03
Rope2_Seg05 Rope2_Seg04
Rope2_Seg06 Rope2_Seg05
Rope2_Seg07 Rope2_Seg06
Rope2_Seg09 Rope2_Seg07
R_mid_hand01 Rope2_Seg09
R_mid_hand02 Rope2_Seg09
R_mid_hand03 Rope2_Seg09
spine02 spine01
spine03 spine02
pelvis spine03
null_rope03_connect pelvis
null_rope04_connect pelvis
Rope3_Seg01 null_rope03_connect
Rope3_Seg02 Rope3_Seg01
Rope3_Seg03 Rope3_Seg02
Rope3_Seg04 Rope3_Seg03
Rope3_Seg05 Rope3_Seg04
Rope3_Seg06 Rope3_Seg05
Rope3_Seg07 Rope3_Seg06
Rope3_Seg08 Rope3_Seg07
Rope3_Seg09 Rope3_Seg08
R_rear_hand01 Rope3_Seg09
R_rear_hand02 Rope3_Seg09
R_rear_hand03 Rope3_Seg09
Rope4_Seg01 null_rope04_connect
Rope4_Seg02 Rope4_Seg01
Rope4_Seg03 Rope4_Seg02
Rope4_Seg04 Rope4_Seg03
Rope4_Seg05 Rope4_Seg04
Rope4_Seg06 Rope4_Seg05
Rope4_Seg07 Rope4_Seg06
Rope4_Seg08 Rope4_Seg07
Rope4_Seg09 Rope4_Seg08
L_rear_hand01 Rope4_Seg09
L_rear_hand02 Rope4_Seg09
L_rear_hand03 Rope4_Seg09
[BasePosition]
#SegmentName Tx, Ty, Tz, Rx, Ry, Rz, BoneLength
MASTER 0.000000 0.000000 0.000000 -90.000000 0.000000 0.000000 10.000000 
root 0.000000 0.000000 0.000000 0.000000 0.000000 0.000000 10.000000 
chest 0.000000 0.000000 0.000000 0.000000 0.000000 0.000000 10.000000 
L_mid_tent01 0.000000 0.000000 0.000000 0.000000 0.000000 0.000000 10.000000 
R_mid_tent01 0.000000 0.000000 0.000000 0.000000 0.000000 0.000000 10.000000 
spine01 0.000000 0.000000 0.000000 0.000000 0.000000 0.000000 10.000000 
Bip01_Neck 0.000000 0.000000 0.000000 0.000000 0.000000 0.000000 10.000000 
L_humerus 0.000000 0.000000 0.000000 0.000000 0.000000 0.000000 10.000000 
R_humerus 0.000000 0.000000 0.000000 0.000000 0.000000 0.000000 10.000000 
weapon_bone 0.000000 0.000000 0.000000 0.000000 0.000000 0.000000 10.000000 
Bip01_Head 0.000000 0.000000 0.000000 0.000000 0.000000 0.000000 10.000000 
eye_left_bone 0.000000 0.000000 0.000000 0.000000 0.000000 0.000000 10.000000 
eye_right_bone 0.000000 0.000000 0.000000 0.000000 0.000000 0.000000 10.000000 
L_forearm 0.000000 0.000000 0.000000 0.000000 0.000000 0.000000 10.000000 
L_front_hand 0.000000 0.000000 0.000000 0.000000 0.000000 0.000000 10.000000 
L_weapon_bone 0.000000 0.000000 0.000000 0.000000 0.000000 0.000000 10.000000 
L_front_hand01_01 0.000000 0.000000 0.000000 0.000000 0.000000 0.000000 10.000000 
L_front_hand02_01 0.000000 0.000000 0.000000 0.000000 0.000000 0.000000 10.000000 
L_front_hand03_01 0.000000 0.000000 0.000000 0.000000 0.000000 0.000000 10.000000 
L_front_hand01_02 0.000000 0.000000 0.000000 0.000000 0.000000 0.000000 10.000000 
L_front_hand02_02 0.000000 0.000000 0.000000 0.000000 0.000000 0.000000 10.000000 
L_front_hand03_02 0.000000 0.000000 0.000000 0.000000 0.000000 0.000000 10.000000 
R_forearm 0.000000 0.000000 0.000000 0.000000 0.000000 0.000000 10.000000 
R_front_hand 0.000000 0.000000 0.000000 0.000000 0.000000 0.000000 10.000000 
R_weapon_bone 0.000000 0.000000 0.000000 0.000000 0.000000 0.000000 10.000000 
R_front_hand01_01 0.000000 0.000000 0.000000 0.000000 0.000000 0.000000 10.000000 
R_front_hand02_01 0.000000 0.000000 0.000000 0.000000 0.000000 0.000000 10.000000 
R_front_hand03_01 0.000000 0.000000 0.000000 0.000000 0.000000 0.000000 10.000000 
R_front_hand01_02 0.000000 0.000000 0.000000 0.000000 0.000000 0.000000 10.000000 
R_front_hand02_02 0.000000 0.000000 0.000000 0.000000 0.000000 0.000000 10.000000 
R_front_hand03_02 0.000000 0.000000 0.000000 0.000000 0.000000 0.000000 10.000000 
null_rope01_connect 0.000000 0.000000 0.000000 0.000000 0.000000 0.000000 10.000000 
Rope1_Seg01 0.000000 0.000000 0.000000 0.000000 0.000000 0.000000 10.000000 
Rope1_Seg02 0.000000 0.000000 0.000000 0.000000 0.000000 0.000000 10.000000 
Rope1_Seg03 0.000000 0.000000 0.000000 0.000000 0.000000 0.000000 10.000000 
Rope1_Seg04 0.000000 0.000000 0.000000 0.000000 0.000000 0.000000 10.000000 
Rope1_Seg05 0.000000 0.000000 0.000000 0.000000 0.000000 0.000000 10.000000 
Rope1_Seg06 0.000000 0.000000 0.000000 0.000000 0.000000 0.000000 10.000000 
Rope1_Seg07 0.000000 0.000000 0.000000 0.000000 0.000000 0.000000 10.000000 
Rope1_Seg09 0.000000 0.000000 0.000000 0.000000 0.000000 0.000000 10.000000 
L_mid_hand01 0.000000 0.000000 0.000000 0.000000 0.000000 0.000000 10.000000 
L_mid_hand02 0.000000 0.000000 0.000000 0.000000 0.000000 0.000000 10.000000 
L_mid_hand03 0.000000 0.000000 0.000000 0.000000 0.000000 0.000000 10.000000 
null_rope02_connect 0.000000 0.000000 0.000000 0.000000 0.000000 0.000000 10.000000 
Rope2_Seg01 0.000000 0.000000 0.000000 0.000000 0.000000 0.000000 10.000000 
Rope2_Seg02 0.000000 0.000000 0.000000 0.000000 0.000000 0.000000 10.000000 
Rope2_Seg03 0.000000 0.000000 0.000000 0.000000 0.000000 0.000000 10.000000 
Rope2_Seg04 0.000000 0.000000 0.000000 0.000000 0.000000 0.000000 10.000000 
Rope2_Seg05 0.000000 0.000000 0.000000 0.000000 0.000000 0.000000 10.000000 
Rope2_Seg06 0.000000 0.000000 0.000000 0.000000 0.000000 0.000000 10.000000 
Rope2_Seg07 0.000000 0.000000 0.000000 0.000000 0.000000 0.000000 10.000000 
Rope2_Seg09 0.000000 0.000000 0.000000 0.000000 0.000000 0.000000 10.000000 
R_mid_hand01 0.000000 0.000000 0.000000 0.000000 0.000000 0.000000 10.000000 
R_mid_hand02 0.000000 0.000000 0.000000 0.000000 0.000000 0.000000 10.000000 
R_mid_hand03 0.000000 0.000000 0.000000 0.000000 0.000000 0.000000 10.000000 
spine02 0.000000 0.000000 0.000000 0.000000 0.000000 0.000000 10.000000 
spine03 0.000000 0.000000 0.000000 0.000000 0.000000 0.000000 10.000000 
pelvis 0.000000 0.000000 0.000000 0.000000 0.000000 0.000000 10.000000 
null_rope03_connect 0.000000 0.000000 0.000000 0.000000 0.000000 0.000000 10.000000 
null_rope04_connect 0.000000 0.000000 0.000000 0.000000 0.000000 0.000000 10.000000 
Rope3_Seg01 0.000000 0.000000 0.000000 0.000000 0.000000 0.000000 10.000000 
Rope3_Seg02 0.000000 0.000000 0.000000 0.000000 0.000000 0.000000 10.000000 
Rope3_Seg03 0.000000 0.000000 0.000000 0.000000 0.000000 0.000000 10.000000 
Rope3_Seg04 0.000000 0.000000 0.000000 0.000000 0.000000 0.000000 10.000000 
Rope3_Seg05 0.000000 0.000000 0.000000 0.000000 0.000000 0.000000 10.000000 
Rope3_Seg06 0.000000 0.000000 0.000000 0.000000 0.000000 0.000000 10.000000 
Rope3_Seg07 0.000000 0.000000 0.000000 0.000000 0.000000 0.000000 10.000000 
Rope3_Seg08 0.000000 0.000000 0.000000 0.000000 0.000000 0.000000 10.000000 
Rope3_Seg09 0.000000 0.000000 0.000000 0.000000 0.000000 0.000000 10.000000 
R_rear_hand01 0.000000 0.000000 0.000000 0.000000 0.000000 0.000000 10.000000 
R_rear_hand02 0.000000 0.000000 0.000000 0.000000 0.000000 0.000000 10.000000 
R_rear_hand03 0.000000 0.000000 0.000000 0.000000 0.000000 0.000000 10.000000 
Rope4_Seg01 0.000000 0.000000 0.000000 0.000000 0.000000 0.000000 10.000000 
Rope4_Seg02 0.000000 0.000000 0.000000 0.000000 0.000000 0.000000 10.000000 
Rope4_Seg03 0.000000 0.000000 0.000000 0.000000 0.000000 0.000000 10.000000 
Rope4_Seg04 0.000000 0.000000 0.000000 0.000000 0.000000 0.000000 10.000000 
Rope4_Seg05 0.000000 0.000000 0.000000 0.000000 0.000000 0.000000 10.000000 
Rope4_Seg06 0.000000 0.000000 0.000000 0.000000 0.000000 0.000000 10.000000 
Rope4_Seg07 0.000000 0.000000 0.000000 0.000000 0.000000 0.000000 10.000000 
Rope4_Seg08 0.000000 0.000000 0.000000 0.000000 0.000000 0.000000 10.000000 
Rope4_Seg09 0.000000 0.000000 0.000000 0.000000 0.000000 0.000000 10.000000 
L_rear_hand01 0.000000 0.000000 0.000000 0.000000 0.000000 0.000000 10.000000 
L_rear_hand02 0.000000 0.000000 0.000000 0.000000 0.000000 0.000000 10.000000 
L_rear_hand03 0.000000 0.000000 0.000000 0.000000 0.000000 0.000000 10.000000 
#Beginning of Data. Separated by tabs
#Fr	Tx	Ty	Tz	Rx	Ry	Rz	SF
[MASTER]
21 5084.677734 0.000768 0.000000 0.001937 0.001325 21.241169 5084.677734
22 5253.258301 0.000793 0.000000 0.001942 0.001318 21.663996 5253.258301
[root]
21 -24.773865 -62.862850 1439.819336 -91.571533 -28.448551 -91.387901 1441.403931
22 -18.729231 -62.832943 1483.844360 -91.615196 -27.878700 -90.491447 1485.292114
[chest]
21 -84.512650 -34.090519 0.000000 -4.029493 13.609941 168.776413 91.129311
22 -84.512650 -34.090519 0.000000 -4.042568 11.173189 171.431229 91.129311
[L_mid_tent01]
21 27.299732 22.177504 -249.918152 3.311060 36.274849 74.668633 252.381058
22 27.299747 22.177504 -249.918167 3.530305 36.107845 78.042274 252.381073
[R_mid_tent01]
21 23.228794 24.509907 226.238495 158.643585 -42.173252 89.359268 228.744751
22 23.228794 24.509907 226.238495 159.664612 -44.771687 88.538963 228.744751
[spine01]
21 -0.361383 -0.195265 0.000000 -0.355830 0.330069 11.292724 0.410763
22 -0.361383 -0.195265 0.000000 -0.419415 0.320593 11.076404 0.410763
[Bip01_Neck]
21 165.484543 71.581718 0.000119 175.896118 1.177290 24.871183 180.302734
22 165.484543 71.581718 0.000119 175.896118 1.177290 24.871183 180.302734
[L_humerus]
21 -13.983130 -135.272980 -120.471481 170.940811 81.564247 -99.189163 181.680161
22 -13.983130 -135.272980 -120.471481 170.940796 81.564224 -99.189163 181.680161
[R_humerus]
21 -13.983309 -135.273102 125.287651 -159.666046 -68.957870 -101.166077 184.909012
22 -13.983309 -135.273102 125.287651 -159.666046 -68.957870 -101.166077 184.909012
[weapon_bone]
21 235.964890 -300.705902 0.000000 0.000000 -89.951546 -128.212341 382.234833
22 235.964890 -300.705902 0.000000 0.000000 -89.951546 -128.212341 382.234833
[Bip01_Head]
21 197.553711 187.998657 13.582153 -4.422392 8.190632 -54.803692 273.048431
22 194.170609 195.391357 13.600749 -4.663002 8.461479 -53.677704 275.798828
[eye_left_bone]
21 -24.626970 125.451866 -64.772606 0.000000 -90.000000 -99.840431 143.318359
22 -24.626970 125.451866 -64.772606 0.000000 -90.000000 -99.840431 143.318359
[eye_right_bone]
21 -24.626970 125.451866 64.327362 0.000000 -89.960434 80.159386 143.117676
22 -24.626970 125.451866 64.327362 0.000000 -89.960434 80.159386 143.117676
[L_forearm]
21 322.776093 0.000000 -0.000119 0.000183 0.002340 -81.045212 322.776093
22 322.776093 0.000000 -0.000119 0.000183 0.002340 -81.045212 322.776093
[L_front_hand]
21 241.149185 -0.042021 -3.300071 -177.744614 -0.258912 -74.727448 241.171753
22 241.149185 -0.042021 -3.300071 -177.732910 -0.049191 -80.028023 241.171753
[L_weapon_bone]
21 156.183838 0.000000 0.000000 0.001667 0.001652 0.506119 156.183838
22 156.183838 0.000000 0.000000 0.001660 0.001660 0.001660 156.183838
[L_front_hand01_01]
21 86.095154 20.947098 -0.655860 0.405585 -0.442306 -4.620490 88.609184
22 86.095154 20.947098 -0.655860 0.405585 -0.442306 -4.620490 88.609184
[L_front_hand02_01]
21 86.935165 -11.437475 24.513514 116.959450 3.630817 1.495453 91.046425
22 86.935165 -11.437475 24.513514 116.959450 3.630817 1.495453 91.046425
[L_front_hand03_01]
21 86.637497 -14.123976 -20.424902 -118.420097 -4.656303 -0.152527 90.126129
22 86.637497 -14.123976 -20.424902 -118.420097 -4.656303 -0.152527 90.126129
[L_front_hand01_02]
21 71.020905 -0.000179 0.000030 0.001534 0.001777 -8.378851 71.020905
22 71.020905 -0.000179 0.000030 0.001534 0.001777 -8.378850 71.020905
[L_front_hand02_02]
21 71.020927 -0.000119 0.000060 0.001534 0.001777 -8.378851 71.020927
22 71.020927 -0.000119 0.000060 0.001534 0.001777 -8.378850 71.020927
[L_front_hand03_02]
21 71.020905 -0.000060 0.000060 0.001534 0.001777 -8.378851 71.020905
22 71.020905 -0.000060 0.000060 0.001534 0.001777 -8.378850 71.020905
[R_forearm]
21 322.776428 -0.000060 0.000030 0.202513 -0.063871 -72.666046 322.776428
22 322.776428 -0.000060 0.000030 0.202513 -0.063871 -72.666046 322.776428
[R_front_hand]
21 238.847015 -0.006795 2.210259 -1.681102 -0.400835 -92.097206 238.857239
22 238.847015 -0.006795 2.210259 -1.676069 -0.420464 -92.752876 238.857239
[R_weapon_bone]
21 155.664093 0.002503 -0.000030 0.003479 0.001203 -91.763039 155.664078
22 155.664093 0.002503 -0.000030 0.003487 0.001180 -90.988930 155.664078
[R_front_hand01_01]
21 87.624611 14.231146 22.918642 -116.960213 3.496675 -1.324139 91.683487
22 87.624611 14.231146 22.918642 -116.960213 3.496675 -1.324139 91.683487
[R_front_hand02_01]
21 89.356956 14.367283 -19.491137 118.419647 -4.257089 0.609827 92.579636
22 89.356956 14.367283 -19.491137 118.419647 -4.257089 0.609827 92.579636
[R_front_hand03_01]
21 87.286232 -22.307278 -0.143439 -0.387970 -0.231462 4.232001 90.091743
22 87.286232 -22.307278 -0.143439 -0.387970 -0.231462 4.232001 90.091743
[R_front_hand01_02]
21 71.020905 0.000060 0.000119 0.001777 0.001534 8.377220 71.020905
22 71.020905 0.000060 0.000119 0.001777 0.001534 8.377220 71.020905
[R_front_hand02_02]
21 71.020844 -0.000030 -0.000119 0.001777 0.001534 8.377220 71.020836
22 71.020844 -0.000030 -0.000119 0.001777 0.001534 8.377220 71.020836
[R_front_hand03_02]
21 71.020905 0.000000 0.000030 0.001777 0.001534 8.377220 71.020905
22 71.020905 0.000000 0.000030 0.001777 0.001534 8.377220 71.020905
[null_rope01_connect]
21 328.732483 0.000000 -0.000238 -157.831116 -64.012253 -152.774612 328.732483
22 328.732483 0.000000 -0.000238 -164.501404 -63.355640 -149.402344 328.732483
[Rope1_Seg01]
21 0.000000 0.000000 0.000000 131.767609 59.456470 157.839233 0.000000
22 0.000000 0.000000 0.000000 131.426682 58.281822 158.078278 0.000000
[Rope1_Seg02]
21 139.999863 -0.000179 0.000000 -0.270400 -2.731167 3.728982 139.999863
22 139.999863 -0.000179 0.000000 -0.311861 -2.872841 4.012638 139.999863
[Rope1_Seg03]
21 139.999924 0.000060 -0.000060 -0.403648 -4.227828 5.740087 139.999924
22 139.999924 0.000060 -0.000060 -0.473524 -4.510672 6.269767 139.999924
[Rope1_Seg04]
21 139.999924 -0.000060 -0.000119 -0.821796 -6.463002 10.241334 139.999924
22 139.999924 -0.000060 -0.000119 -0.924551 -6.918709 11.412912 139.999924
[Rope1_Seg05]
21 139.999832 0.000119 -0.000060 -1.534770 -13.033582 23.227324 139.999832
22 139.999832 0.000119 -0.000060 -2.233761 -15.361191 23.317949 139.999832
[Rope1_Seg06]
21 139.999954 0.000119 -0.000060 -7.197876 -17.951080 9.138034 139.999954
22 139.999954 0.000119 -0.000060 -5.084002 -13.822566 7.988783 139.999954
[Rope1_Seg07]
21 139.999985 0.000060 0.000000 -4.871895 -6.289598 -0.032920 139.999985
22 139.999985 0.000060 0.000000 -2.595243 -4.941768 2.005261 139.999985
[Rope1_Seg09]
21 121.602913 0.000119 -0.000089 -89.793175 -1.359789 0.847147 121.602913
22 121.602913 0.000119 -0.000089 -89.793175 -1.359789 0.847147 121.602913
[L_mid_hand01]
21 103.859421 1.038730 8.195221 105.318970 -20.241947 -5.944750 104.187431
22 103.859421 1.038730 8.195221 105.476997 -21.698414 -6.376460 104.187431
[L_mid_hand02]
21 105.572853 -4.139662 -10.864139 -138.730484 18.460613 -19.249084 106.211075
22 105.572853 -4.139662 -10.864139 -139.121078 19.457188 -20.452526 106.211075
[L_mid_hand03]
21 104.641464 17.579376 -3.913581 -17.677298 6.395949 23.170801 106.179977
22 104.641464 17.579376 -3.913581 -17.511391 6.856476 24.618546 106.179977
[null_rope02_connect]
21 328.732849 0.000179 -0.000119 -113.344200 27.180225 34.007515 328.732849
22 328.732849 0.000179 -0.000119 -115.281219 24.491570 32.586788 328.732849
[Rope2_Seg01]
21 -0.000046 0.000134 0.000153 -42.411160 47.726727 62.164032 0.000208
22 -0.000044 0.000134 0.000153 -40.496975 52.647442 65.201973 0.000208
[Rope2_Seg02]
21 139.999741 -0.000060 -0.000119 -0.306745 -6.741220 5.064812 139.999756
22 139.999741 -0.000060 -0.000119 -0.229588 -6.724439 3.766166 139.999756
[Rope2_Seg03]
21 140.000107 0.000030 0.000000 -0.102587 -8.271099 6.106076 140.000107
22 140.000107 0.000030 0.000000 -0.252503 -8.663486 4.729021 140.000107
[Rope2_Seg04]
21 139.999802 0.000000 -0.000060 -0.798428 -9.441143 2.355524 139.999802
22 139.999802 0.000000 -0.000060 -1.192292 -10.580910 1.199892 139.999802
[Rope2_Seg05]
21 139.999985 -0.000060 0.000119 2.822362 -9.639828 11.171565 139.999985
22 139.999985 -0.000060 0.000119 2.519501 -11.998451 12.021578 139.999985
[Rope2_Seg06]
21 139.999893 -0.000030 -0.000119 15.003613 -6.201105 19.979942 139.999893
22 139.999893 -0.000030 -0.000119 14.159259 -7.009976 18.145123 139.999893
[Rope2_Seg07]
21 139.999893 0.000060 -0.000060 12.949345 -0.682549 11.456677 139.999893
22 139.999893 0.000060 -0.000060 10.467367 -1.742981 9.020802 139.999893
[Rope2_Seg09]
21 121.338966 0.000089 -0.000060 33.793236 -1.359788 -0.847141 121.338966
22 121.338966 0.000089 -0.000060 33.793236 -1.359788 -0.847141 121.338966
[R_mid_hand01]
21 104.680779 11.144459 -10.335981 -44.664528 18.070995 20.156975 105.778534
22 104.680779 11.144459 -10.335981 -44.355274 18.974573 21.124483 105.778534
[R_mid_hand02]
21 104.070427 2.443552 8.231699 74.434563 -22.435429 6.604714 104.424065
22 104.070427 2.443552 8.231699 74.289070 -23.678041 6.979428 104.424065
[R_mid_hand03]
21 106.028137 -11.221827 -5.996406 -166.228409 7.848495 -26.405989 106.788818
22 106.028137 -11.221827 -5.996406 -166.402725 8.152507 -27.673399 106.788818
[spine02]
21 129.756927 0.001550 0.000119 -0.041750 -3.946345 -7.221718 129.756927
22 129.756927 0.001550 0.000119 -0.031994 -3.941140 -7.370806 129.756927
[spine03]
21 79.079895 0.006332 -0.349731 1.921576 -2.594934 22.511393 79.080673
22 79.115906 -0.000076 0.000000 1.907030 -2.965995 23.921795 79.115906
[pelvis]
21 169.435242 0.051022 0.000000 -10.960023 1.264248 -3.886574 169.435257
22 169.435242 0.051022 0.000000 -9.355558 1.518903 -3.969396 169.435257
[null_rope03_connect]
21 -1.257226 -2.466202 137.391083 119.455666 -64.459961 -21.376982 137.418976
22 -1.257226 -2.466202 137.391083 114.594727 -63.510937 -18.269197 137.418976
[null_rope04_connect]
21 -1.259640 -2.480268 -137.844437 119.455666 -64.459961 -21.376982 137.872513
22 -1.259640 -2.480268 -137.844437 114.594727 -63.510937 -18.269197 137.872513
[Rope3_Seg01]
21 0.000000 0.000000 0.000000 -148.019958 -21.234858 -26.163723 0.000000
22 0.000000 0.000000 0.000000 -145.655869 -19.858116 -27.785906 0.000000
[Rope3_Seg02]
21 139.999924 -0.000119 0.000060 -43.656277 -3.009206 -28.024891 139.999924
22 139.999924 -0.000119 0.000060 -48.398964 -1.556753 -30.566545 139.999924
[Rope3_Seg03]
21 139.999924 -0.000119 0.000119 -66.113800 18.212091 -18.325392 139.999924
22 139.999924 -0.000119 0.000119 -61.959946 23.729916 -18.552916 139.999924
[Rope3_Seg04]
21 139.999924 0.000119 0.000000 -21.791407 25.138660 2.123007 139.999924
22 139.999924 0.000119 0.000000 -19.130396 28.545578 2.672583 139.999924
[Rope3_Seg05]
21 139.999924 -0.000238 0.000060 -7.737720 28.947798 9.635814 139.999924
22 139.999924 -0.000238 0.000060 -5.242127 27.850683 8.526383 139.999924
[Rope3_Seg06]
21 139.999893 -0.000119 -0.000060 -0.275483 10.713032 5.844896 139.999893
22 139.999893 -0.000119 -0.000060 0.170353 9.384742 4.472929 139.999893
[Rope3_Seg07]
21 139.999771 0.000060 -0.000119 0.447130 4.993528 2.947174 139.999771
22 139.999771 0.000060 -0.000119 0.613258 4.714619 2.348584 139.999771
[Rope3_Seg08]
21 139.999985 -0.000060 0.000000 0.568708 2.724373 1.583476 139.999985
22 139.999985 -0.000060 0.000000 0.658651 2.601203 1.263289 139.999985
[Rope3_Seg09]
21 90.185997 -0.000179 -0.000060 89.793228 -1.359877 -0.847183 90.185997
22 90.185997 -0.000179 -0.000060 89.793228 -1.359877 -0.847183 90.185997
[R_rear_hand01]
21 103.366196 -6.073594 -10.757982 -159.090073 13.386786 -20.616554 104.101845
22 103.366196 -6.073594 -10.757982 -159.598709 14.167138 -22.751802 104.101845
[R_rear_hand02]
21 100.509819 12.039542 -7.992327 -36.626534 13.642225 20.623665 101.543350
22 100.509819 12.039542 -7.992327 -36.171692 14.961147 22.465162 101.543350
[R_rear_hand03]
21 101.539970 5.215704 5.435467 83.895897 -21.276398 6.086509 101.819031
22 101.539970 5.215704 5.435467 83.795952 -23.482494 6.345252 101.819031
[Rope4_Seg01]
21 -0.000011 -0.000015 -0.000153 46.884304 -8.733915 -102.818016 0.000154
22 -0.000011 -0.000012 -0.000153 46.207413 -5.172578 -97.144363 0.000153
[Rope4_Seg02]
21 139.999985 0.000060 0.000119 9.383762 -39.527241 -20.032192 139.999985
22 139.999985 0.000060 0.000119 12.426998 -47.055580 -17.104382 139.999985
[Rope4_Seg03]
21 139.999924 0.000000 -0.000238 3.122780 -18.969593 -9.326972 139.999924
22 139.999924 0.000000 -0.000238 16.661707 -24.704491 -5.226433 139.999924
[Rope4_Seg04]
21 139.999985 0.000000 0.000119 148.623489 -35.835213 -9.484648 139.999985
22 139.999985 0.000000 0.000119 111.195053 -37.217335 5.128363 139.999985
[Rope4_Seg05]
21 139.999802 -0.000060 -0.000119 19.622917 25.641314 29.730103 139.999802
22 139.999802 -0.000060 -0.000119 22.251463 15.751296 29.343849 139.999802
[Rope4_Seg06]
21 139.999924 0.000000 0.000060 1.201519 8.051785 5.477773 139.999924
22 139.999924 0.000000 0.000060 1.860906 6.447394 5.880546 139.999924
[Rope4_Seg07]
21 139.999802 0.000000 0.000000 0.477476 4.057878 2.671384 139.999802
22 139.999802 0.000000 0.000000 0.773002 3.524212 3.029309 139.999802
[Rope4_Seg08]
21 139.999924 0.000000 0.000119 -1.316883 2.189528 1.416085 139.999924
22 139.999924 0.000000 0.000119 -1.177627 1.947659 1.633887 139.999924
[Rope4_Seg09]
21 90.185791 0.000060 0.000060 -135.617828 2.228885 0.850567 90.185791
22 90.185791 0.000060 0.000060 -135.617828 2.228885 0.850567 90.185791
[L_rear_hand01]
21 101.696655 -8.392275 -7.654577 -37.097984 -12.101351 161.488007 102.329041
22 101.696655 -8.392275 -7.654577 -36.675041 -13.498219 159.575958 102.329041
[L_rear_hand02]
21 102.726799 -1.568258 5.773216 83.993034 18.721008 174.203247 102.900848
22 102.726799 -1.568258 5.773216 83.906593 21.035519 173.944992 102.900848
[L_rear_hand03]
21 104.552910 9.721220 -10.420293 -158.537842 -12.454073 -161.844238 105.519653
22 104.552910 9.721220 -10.420293 -159.035812 -13.298707 -159.616318 105.519653
